<svg width="81" height="18" viewBox="0 0 81 18" fill="none" xmlns="http://www.w3.org/2000/svg">
<path d="M25.1669 12.1824L23.6791 8.16261L22.1983 12.1824H25.1669ZM19.9805 15.1648L23.0646 7.08374H24.3006L27.3847 15.1648H26.2457L25.5088 13.0903H21.8702L21.1333 15.1648H19.9805ZM29.48 14.2569V17.4704H28.4843V9.10286H29.48V10.0177C29.6903 9.65731 29.9536 9.39164 30.2724 9.21837C30.5959 9.04049 30.977 8.9527 31.4183 8.9527C32.1553 8.9527 32.7536 9.24609 33.2133 9.83288C33.6777 10.4151 33.9087 11.1844 33.9087 12.1408C33.9087 13.0926 33.6777 13.8596 33.2133 14.4487C32.7536 15.0308 32.1553 15.3219 31.4183 15.3219C30.977 15.3219 30.5959 15.2365 30.2724 15.0632C29.9536 14.8853 29.6903 14.615 29.48 14.2569ZM32.8714 12.1408C32.8714 11.4084 32.7189 10.8332 32.414 10.4151C32.1183 9.99691 31.7071 9.78668 31.178 9.78668C30.6513 9.78668 30.2332 9.99691 29.9282 10.4151C29.6279 10.8332 29.4777 11.4084 29.4777 12.1408C29.4777 12.8731 29.6279 13.4484 29.9282 13.8665C30.2332 14.28 30.649 14.488 31.178 14.488C31.7048 14.488 32.1183 14.28 32.414 13.8665C32.7189 13.4484 32.8714 12.8731 32.8714 12.1408ZM36.5239 14.2569V17.4704H35.5212V9.10286H36.5239V10.0177C36.7341 9.65731 36.9951 9.39164 37.3093 9.21837C37.6328 9.04049 38.0162 8.9527 38.4621 8.9527C39.1944 8.9527 39.7905 9.24609 40.2502 9.83288C40.7146 10.4151 40.9456 11.1844 40.9456 12.1408C40.9456 13.0926 40.7146 13.8596 40.2502 14.4487C39.7905 15.0308 39.1944 15.3219 38.4621 15.3219C38.0162 15.3219 37.6328 15.2365 37.3093 15.0632C36.9951 14.8853 36.7318 14.615 36.5239 14.2569ZM39.9083 12.1408C39.9083 11.4084 39.7558 10.8332 39.4509 10.4151C39.1552 9.99691 38.744 9.78668 38.2149 9.78668C37.6882 9.78668 37.27 9.99691 36.9651 10.4151C36.6694 10.8332 36.5215 11.4084 36.5215 12.1408C36.5215 12.8731 36.6694 13.4484 36.9651 13.8665C37.27 14.28 37.6859 14.488 38.2149 14.488C38.7416 14.488 39.1552 14.28 39.4509 13.8665C39.7558 13.4484 39.9083 12.8731 39.9083 12.1408ZM48.1118 14.012V11.8428H46.3307V10.9418H49.1976V14.4163C48.7749 14.7167 48.3082 14.9431 47.7977 15.0978C47.2917 15.248 46.7511 15.3219 46.1736 15.3219C44.9076 15.3219 43.9188 14.9523 43.205 14.2153C42.4957 13.4784 42.14 12.4503 42.14 11.1312C42.14 9.8121 42.4957 8.78405 43.205 8.0471C43.9188 7.30552 44.9099 6.93358 46.1736 6.93358C46.7003 6.93358 47.1993 7.00058 47.6683 7.13226C48.1465 7.25932 48.5854 7.45106 48.9851 7.70519V8.87184C48.5808 8.52531 48.1511 8.26657 47.696 8.0933C47.2409 7.92003 46.7627 7.83456 46.2637 7.83456C45.2772 7.83456 44.5333 8.10947 44.032 8.6593C43.5399 9.21375 43.2951 10.0385 43.2951 11.1289C43.2951 12.2193 43.5399 13.0418 44.032 13.5916C44.5333 14.1414 45.2772 14.4163 46.2637 14.4163C46.6495 14.4163 46.996 14.384 47.301 14.3216C47.6013 14.2569 47.8716 14.153 48.1118 14.012ZM54.8623 12.1131H53.8735C53.0672 12.1131 52.5105 12.2055 52.2009 12.3926C51.8913 12.5751 51.7366 12.8893 51.7366 13.3352C51.7366 13.6909 51.8521 13.9728 52.0854 14.1807C52.3164 14.3863 52.6329 14.488 53.0349 14.488C53.5893 14.488 54.0329 14.2916 54.3656 13.9012C54.6982 13.5107 54.8646 12.9886 54.8646 12.3372V12.1131H54.8623ZM55.858 11.7042V15.1648H54.8623V14.2431C54.6359 14.6127 54.3517 14.8853 54.0167 15.0632C53.6748 15.2365 53.259 15.3219 52.7669 15.3219C52.1478 15.3219 51.6534 15.1487 51.2861 14.8021C50.9211 14.451 50.7409 13.982 50.7409 13.3952C50.7409 12.7183 50.9673 12.2032 51.4224 11.852C51.8821 11.5055 52.5636 11.3322 53.4692 11.3322H54.8623V11.2375C54.8623 10.7778 54.7121 10.422 54.4118 10.1725C54.1114 9.92298 53.6887 9.79823 53.1435 9.79823C52.7969 9.79823 52.462 9.83982 52.1339 9.92067C51.8059 10.0015 51.4894 10.1286 51.1844 10.2949V9.37316C51.5494 9.23223 51.9029 9.12827 52.2494 9.05897C52.5913 8.98504 52.9217 8.95039 53.2451 8.95039C54.123 8.95039 54.7791 9.17679 55.2111 9.6319C55.6431 10.0916 55.858 10.7801 55.858 11.7042ZM57.9117 15.1648V6.74414H58.9074V15.1648H57.9117ZM60.9912 15.1648V6.74414H61.9869V15.1648H60.9912ZM69.2271 11.882V12.3741H64.6483C64.6899 13.0556 64.8932 13.58 65.2628 13.9427C65.6348 14.2985 66.1522 14.4741 66.813 14.4741C67.1941 14.4741 67.5638 14.4279 67.9195 14.3378C68.2846 14.2431 68.6403 14.1021 68.9915 13.915V14.8576C68.6357 15.0077 68.2707 15.1233 67.8918 15.2064C67.5199 15.2827 67.1387 15.3219 66.7529 15.3219C65.7872 15.3219 65.0225 15.0401 64.4519 14.4764C63.8882 13.9173 63.6064 13.1573 63.6064 12.1962C63.6064 11.2005 63.8744 10.4127 64.4127 9.8352C64.9486 9.2484 65.674 8.95501 66.5819 8.95501C67.3974 8.95501 68.0397 9.21837 68.5133 9.74741C68.9892 10.2695 69.2271 10.9811 69.2271 11.882ZM64.676 11.5956H68.2314C68.2222 11.0504 68.0674 10.6137 67.7671 10.2857C67.4714 9.96226 67.0786 9.80054 66.5866 9.80054C66.0321 9.80054 65.5862 9.95764 65.249 10.2718C64.9163 10.586 64.7268 11.0273 64.676 11.5956ZM74.3327 9.00814L74.3396 10.0316C74.2264 9.96688 74.104 9.92067 73.97 9.88833C73.836 9.85599 73.6951 9.83982 73.5403 9.83982C72.9766 9.83982 72.5423 10.0246 72.2373 10.392C71.937 10.757 71.7868 11.2814 71.7868 11.9675V15.1625H70.7911V9.10286H71.7868V10.0454C71.9971 9.67579 72.2697 9.40319 72.607 9.2253C72.9442 9.0428 73.3508 8.9527 73.829 8.9527C73.8984 8.9527 73.9746 8.95963 74.0601 8.97349C74.1409 8.97811 74.2333 8.98966 74.3327 9.00814ZM80.5702 9.10286L77.9089 15.7239C77.627 16.447 77.3521 16.9206 77.0841 17.1424C76.8161 17.3618 76.4581 17.4704 76.0122 17.4704H75.2129V16.6388H75.7997C76.0723 16.6388 76.2871 16.5718 76.4419 16.4401C76.5921 16.313 76.7584 16.0058 76.9409 15.5183L77.1257 15.0678L74.6677 9.10286H75.7257L77.6224 13.8388L79.5122 9.10286H80.5702Z" fill="#003973"/>
<path d="M19.918 4.24385V0.0739283H22.5516V0.545209H20.477V1.78117H22.4638V2.25938H20.477V3.76794H22.607V4.24616H19.918V4.24385ZM24.6285 2.01912L23.3325 0.0739283H23.94L24.9773 1.62407L26.0146 0.0739283H26.6222L25.2846 2.07457L26.71 4.24385H26.1024L24.9357 2.46961L23.7483 4.24385H23.1407L24.6285 2.01912ZM28.7222 0.538278H28.0129V2.10229H28.7222C28.9855 2.10229 29.1911 2.03529 29.3367 1.90361C29.4776 1.76731 29.5492 1.57094 29.5492 1.31682C29.5492 1.07193 29.4776 0.880189 29.3367 0.743886C29.1911 0.607584 28.9855 0.538278 28.7222 0.538278ZM27.4539 4.24385V0.0739283H28.7222C29.1911 0.0739283 29.5446 0.177888 29.7872 0.388116C30.0228 0.602965 30.1429 0.91022 30.1429 1.31682C30.1429 1.73034 30.0251 2.04222 29.7872 2.25245C29.5469 2.46268 29.1911 2.56664 28.7222 2.56664H28.0129V4.24616H27.4539V4.24385ZM30.9007 4.24385V0.0739283H31.4667V3.76564H33.4997V4.24385H30.9007ZM35.5812 0.457423C35.1723 0.457423 34.8442 0.609896 34.5993 0.914843C34.3637 1.21979 34.2435 1.63563 34.2435 2.16466C34.2435 2.68677 34.3614 3.10492 34.5993 3.41448C34.8442 3.71943 35.1723 3.87191 35.5812 3.87191C35.9901 3.87191 36.3135 3.71943 36.5491 3.41448C36.7894 3.10492 36.9118 2.68908 36.9118 2.16466C36.9118 1.63794 36.7917 1.21979 36.5491 0.914843C36.3135 0.607586 35.9901 0.457423 35.5812 0.457423ZM35.5812 0C36.1633 0 36.63 0.196369 36.9811 0.586794C37.3323 0.977219 37.5056 1.50394 37.5056 2.16235C37.5056 2.82307 37.33 3.34749 36.9811 3.73791C36.63 4.12834 36.1633 4.32471 35.5812 4.32471C34.9944 4.32471 34.5231 4.12834 34.1673 3.73791C33.8162 3.34749 33.6429 2.82076 33.6429 2.16235C33.6429 1.50163 33.8185 0.977219 34.1673 0.586794C34.5231 0.194059 34.9944 0 35.5812 0ZM40.3656 2.28479C40.488 2.32638 40.6059 2.41417 40.7214 2.55047C40.8346 2.68215 40.9501 2.86697 41.0702 3.10261L41.6431 4.24154H41.0356L40.5042 3.1696C40.3633 2.89238 40.2293 2.70756 40.1022 2.61746C39.9706 2.52737 39.7927 2.48116 39.5709 2.48116H38.9564V4.24154H38.3904V0.0739283H39.6656C40.1438 0.0739283 40.4996 0.173268 40.7375 0.374256C40.9686 0.570623 41.0864 0.870948 41.0864 1.27523C41.0864 1.5386 41.024 1.75807 40.9016 1.93133C40.7745 2.10229 40.5989 2.22242 40.3656 2.28479ZM39.6633 0.538278H38.9541V2.01912H39.6633C39.9359 2.01912 40.1415 1.95443 40.2778 1.82737C40.4187 1.70031 40.4903 1.5155 40.4903 1.27523C40.4903 1.03035 40.4187 0.845536 40.2778 0.723095C40.1415 0.600655 39.9359 0.538278 39.6633 0.538278ZM42.3662 4.24385V0.0739283H44.9999V0.545209H42.9322V1.78117H44.919V2.25938H42.9322V3.76794H45.0553V4.24616H42.3662V4.24385ZM47.7975 4.24385V0.0739283H48.3635V4.24385H47.7975ZM48.9111 0.545209V0.0739283H52.4387V0.545209H50.9579V4.24385H50.3919V0.545209H48.9111ZM56.4931 0.457423C56.0842 0.457423 55.7585 0.609896 55.5182 0.914843C55.278 1.21979 55.1555 1.63563 55.1555 2.16466C55.1555 2.68677 55.2757 3.10492 55.5182 3.41448C55.7585 3.71943 56.0842 3.87191 56.4931 3.87191C56.9021 3.87191 57.2278 3.71943 57.468 3.41448C57.7037 3.10492 57.8238 2.68908 57.8238 2.16466C57.8238 1.63794 57.706 1.21979 57.468 0.914843C57.2278 0.607586 56.9021 0.457423 56.4931 0.457423ZM56.4931 0C57.0799 0 57.5489 0.196369 57.9001 0.586794C58.2512 0.977219 58.4245 1.50394 58.4245 2.16235C58.4245 2.82307 58.2489 3.34749 57.9001 3.73791C57.5512 4.12834 57.0799 4.32471 56.4931 4.32471C55.9064 4.32471 55.4374 4.12834 55.0862 3.73791C54.7351 3.34749 54.5618 2.82076 54.5618 2.16235C54.5618 1.50163 54.7374 0.977219 55.0862 0.586794C55.4374 0.194059 55.9064 0 56.4931 0ZM59.3047 4.24385V0.0739283H60.0624L61.9129 3.56234V0.0739283H62.465V4.24385H61.7003L59.8499 0.755438V4.24385H59.3047Z" fill="#003973"/>
<path d="M12.7797 0.0878906H5.35475C1.85247 0.0878906 0.570312 1.36312 0.570312 4.86539V12.2904C0.570312 15.7927 1.85247 17.0748 5.35475 17.0748H12.7797C16.2751 17.0748 17.5573 15.7927 17.5573 12.2904V4.86539C17.5573 1.36312 16.282 0.0878906 12.7797 0.0878906Z" fill="#003973"/>
<path fill-rule="evenodd" clip-rule="evenodd" d="M7.82016 10.3379L7.61456 10.7953H7.15714L8.13204 8.57752H8.52709L9.50199 10.7953H9.03071L8.83204 10.3379H7.82016ZM7.98188 9.93592H8.66339L8.32148 9.14352L7.98188 9.93592ZM15.2174 8.57752H15.6679V10.7953H15.2174V8.57752ZM13.4501 10.3933H14.6861V10.7953H13.0066V8.57752H14.6376V8.98643H13.4501V9.43692H14.2703V9.84583H13.4501V10.3933ZM12.1726 8.57752H12.6439L11.8723 10.8023H11.4911L10.9851 9.3422L10.4792 10.8023H10.1096L9.33104 8.57752H9.81618L10.3083 10.1069L10.8073 8.57752H11.1769L11.6828 10.1069L12.1726 8.57752ZM6.47563 8.57752H6.92612V9.83427C6.92612 10.4696 6.57727 10.8369 5.96276 10.8369C5.36211 10.8369 5.01327 10.4742 5.01327 9.84813V8.57983H5.46375V9.83658C5.46375 10.2108 5.64164 10.4095 5.96969 10.4095C6.29774 10.4095 6.47563 10.2108 6.47563 9.85044V8.57752ZM3.93671 8.57752H4.3872V10.8023H3.93671V9.89434H2.92022V10.8023H2.46973V8.57752H2.92022V9.47157H3.93671V8.57752ZM9.06768 5.75214C7.50367 5.75214 6.24229 4.48384 6.24229 2.92676H6.63734C6.63734 4.26437 7.73007 5.35016 9.06768 5.35016C10.4053 5.35016 11.498 4.26437 11.498 2.92676H11.8931C11.8931 4.48153 10.6248 5.75214 9.06768 5.75214Z" fill="white"/>
</svg>
