<svg width="90" height="24" viewBox="0 0 90 24" fill="none" xmlns="http://www.w3.org/2000/svg">
<path d="M14.2636 11.1595C14.2397 8.50844 16.4348 7.21869 16.5352 7.15864C15.292 5.34657 13.3651 5.09898 12.688 5.07924C11.0696 4.90897 9.49974 6.04738 8.67533 6.04738C7.83446 6.04738 6.56493 5.09569 5.19667 5.12366C3.43595 5.1508 1.78877 6.16994 0.885375 7.75252C-0.979013 10.9794 0.411462 15.7214 2.19769 18.3297C3.09121 19.6079 4.1353 21.0334 5.50192 20.9832C6.83891 20.9289 7.33833 20.1319 8.95178 20.1319C10.5504 20.1319 11.0194 20.9832 12.4132 20.9511C13.8481 20.9289 14.7515 19.668 15.6137 18.379C16.6463 16.9157 17.061 15.473 17.0774 15.3989C17.0445 15.3874 14.2915 14.3362 14.2636 11.1595ZM11.6307 3.3634C12.3498 2.46436 12.8418 1.24123 12.7052 0C11.6644 0.0460627 10.3628 0.71973 9.61328 1.59903C8.95013 2.37388 8.35774 3.64389 8.51077 4.83823C9.67992 4.92542 10.8803 4.24846 11.6307 3.3634Z" fill="#003973"/>
<path d="M33.6285 20.7999H31.76L30.7365 17.5846H27.1789L26.2039 20.7999H24.3848L27.9103 9.85345H30.0874L33.6285 20.7999ZM30.428 16.2356L29.5024 13.3772C29.4045 13.0852 29.2202 12.3976 28.9503 11.3151H28.9174C28.8088 11.7807 28.6352 12.4683 28.3974 13.3772L27.4874 16.2356H30.428ZM42.6773 16.7563C42.6773 18.0987 42.3128 19.1598 41.5831 19.9387C40.9298 20.6321 40.1177 20.9784 39.1493 20.9784C38.1036 20.9784 37.3516 20.6058 36.8949 19.8589V24.0005H35.1408V15.5011C35.1408 14.658 35.1186 13.7935 35.0758 12.9067H36.6185L36.7164 14.1578H36.7493C37.3343 13.2152 38.2221 12.7439 39.4134 12.7439C40.3448 12.7439 41.1223 13.1116 41.7443 13.8477C42.3655 14.5856 42.6773 15.5545 42.6773 16.7563ZM40.8903 16.8204C40.8903 16.0522 40.7175 15.4188 40.3703 14.9195C39.991 14.4005 39.4817 14.1406 38.8432 14.1406C38.4105 14.1406 38.0172 14.2853 37.6659 14.5708C37.3137 14.8587 37.0833 15.2346 36.9756 15.7001C36.9274 15.8742 36.9001 16.0534 36.8941 16.234V17.5509C36.8941 18.1242 37.0702 18.6087 37.4223 19.0051C37.7745 19.3999 38.2319 19.5982 38.7947 19.5982C39.4554 19.5982 39.9696 19.3424 40.3374 18.8349C40.706 18.3257 40.8903 17.6545 40.8903 16.8204ZM51.7582 16.7563C51.7582 18.0987 51.3937 19.1598 50.6639 19.9387C50.0098 20.6321 49.1986 20.9784 48.2294 20.9784C47.1836 20.9784 46.4316 20.6058 45.975 19.8589V24.0005H44.2208V15.5011C44.2208 14.658 44.1986 13.7935 44.1558 12.9067H45.6985L45.7964 14.1578H45.8294C46.4135 13.2152 47.3013 12.7439 48.4935 12.7439C49.424 12.7439 50.2015 13.1116 50.8252 13.8477C51.4456 14.5856 51.7582 15.5545 51.7582 16.7563ZM49.9703 16.8204C49.9703 16.0522 49.7967 15.4188 49.4495 14.9195C49.0702 14.4005 48.5626 14.1406 47.9241 14.1406C47.4913 14.1406 47.0981 14.2853 46.7451 14.5708C46.3929 14.8587 46.1634 15.2346 46.0556 15.7001C46.0021 15.9173 45.9733 16.0941 45.9733 16.234V17.5509C45.9733 18.1242 46.1502 18.6087 46.5007 19.0051C46.8529 19.3991 47.3103 19.5982 47.8748 19.5982C48.5363 19.5982 49.0505 19.3424 49.4174 18.8349C49.786 18.3257 49.9703 17.6545 49.9703 16.8204ZM61.9111 17.7294C61.9111 18.6613 61.5853 19.4189 60.9378 20.0037C60.2253 20.642 59.2306 20.962 57.9553 20.962C56.7771 20.962 55.8325 20.7349 55.12 20.2801L55.5257 18.8184C56.2949 19.2741 57.1399 19.5011 58.0598 19.5011C58.7213 19.5011 59.2355 19.3514 59.6025 19.0545C59.9702 18.7567 60.1562 18.3586 60.1562 17.8618C60.1562 17.4168 60.0023 17.0442 59.7004 16.7406C59.3968 16.4379 58.8949 16.1558 58.1898 15.8967C56.2727 15.1819 55.3134 14.1365 55.3134 12.7612C55.3134 11.8629 55.6524 11.1276 56.3287 10.5526C57.005 9.97847 57.9018 9.69141 59.0175 9.69141C60.0138 9.69141 60.844 9.86496 61.5031 10.2113L61.0629 11.6408C60.4425 11.3052 59.7423 11.1374 58.9591 11.1374C58.3403 11.1374 57.8549 11.2896 57.5077 11.5923C57.2156 11.8629 57.0675 12.1928 57.0675 12.5843C57.0675 13.0161 57.2362 13.3748 57.5719 13.6561C57.8631 13.9152 58.3946 14.1973 59.1631 14.5C60.106 14.88 60.7988 15.3226 61.2422 15.8309C61.689 16.3392 61.9111 16.9734 61.9111 17.7294ZM67.7256 14.2228H65.7921V18.0551C65.7921 19.0298 66.1328 19.5159 66.8157 19.5159C67.1291 19.5159 67.3891 19.4896 67.5948 19.4345L67.6434 20.7662C67.2978 20.8953 66.8428 20.9603 66.2792 20.9603C65.5864 20.9603 65.0451 20.7489 64.6542 20.3261C64.2651 19.9033 64.0693 19.1951 64.0693 18.1982V14.2195H62.9174V12.9035H64.0693V11.4582L65.7921 10.9384V12.9035H67.7256V14.2228ZM76.4322 16.7884C76.4322 18.0016 76.0849 18.9977 75.3922 19.7767C74.6673 20.5787 73.703 20.9784 72.501 20.9784C71.3409 20.9784 70.4185 20.5943 69.7307 19.8268C69.0429 19.0578 68.699 18.0888 68.699 16.92C68.699 15.6968 69.0544 14.695 69.7628 13.916C70.4729 13.1362 71.4289 12.7464 72.631 12.7464C73.7894 12.7464 74.72 13.1313 75.4243 13.8996C76.0973 14.6448 76.4322 15.6072 76.4322 16.7884ZM74.6138 16.8287C74.6138 16.1056 74.4575 15.4854 74.144 14.9664C73.7763 14.3396 73.2497 14.0262 72.5676 14.0262C71.865 14.0262 71.3261 14.3396 70.9591 14.9664C70.6448 15.4854 70.4885 16.1163 70.4885 16.8616C70.4885 17.5854 70.6448 18.2073 70.9591 18.7246C71.3384 19.3514 71.8674 19.6648 72.5528 19.6648C73.2234 19.6648 73.7491 19.3448 74.1292 18.709C74.4518 18.1776 74.6138 17.5533 74.6138 16.8287ZM82.1364 14.449C81.9539 14.4161 81.7689 14.3999 81.5835 14.4005C80.9664 14.4005 80.4892 14.6325 80.1535 15.0997C79.8623 15.5109 79.7158 16.0308 79.7158 16.6584V20.7999H77.9617V15.3925C77.9632 14.5639 77.9462 13.7354 77.9107 12.9076H79.4385L79.5027 14.4178H79.5513C79.7372 13.8987 80.0285 13.4801 80.4283 13.1667C80.7943 12.8928 81.2391 12.7445 81.6962 12.7439C81.8583 12.7439 82.0047 12.7554 82.1347 12.776L82.1364 14.449ZM89.9815 16.4799C89.9859 16.7465 89.9644 17.0129 89.9173 17.2753H84.6549C84.6746 18.0551 84.9297 18.6522 85.4184 19.0635C85.8619 19.4304 86.4353 19.6146 87.1396 19.6146C87.9188 19.6146 88.6297 19.4913 89.269 19.242L89.5438 20.4586C88.7967 20.7843 87.9147 20.9463 86.8969 20.9463C85.6726 20.9463 84.7117 20.5861 84.0123 19.8672C83.3146 19.1474 82.9649 18.1801 82.9649 16.9685C82.9649 15.7791 83.2899 14.7879 83.9407 13.9974C84.622 13.1535 85.5426 12.7315 86.7011 12.7315C87.839 12.7315 88.7004 13.1535 89.2854 13.9974C89.7486 14.6662 89.9815 15.4953 89.9815 16.4799ZM88.3088 16.025C88.3211 15.5044 88.2059 15.0561 87.9682 14.6769C87.6646 14.1883 87.1972 13.9448 86.5711 13.9448C85.9976 13.9448 85.5303 14.1825 85.1749 14.6596C84.8828 15.0388 84.7092 15.4945 84.6557 16.0234L88.3088 16.025Z" fill="#003973"/>
<path d="M26.6734 5.98321C26.1855 5.98321 25.7634 5.95936 25.4121 5.91905V0.626773C25.9035 0.550889 26.4 0.513486 26.8972 0.514906C28.9089 0.514906 29.8353 1.50443 29.8353 3.11745C29.8353 4.97806 28.741 5.98321 26.6734 5.98321ZM26.968 1.19351C26.6964 1.19351 26.4652 1.20996 26.2735 1.24944V5.27253C26.3772 5.28898 26.5763 5.29638 26.8561 5.29638C28.1741 5.29638 28.9245 4.54622 28.9245 3.1413C28.9245 1.88856 28.2457 1.19351 26.968 1.19351ZM32.7224 6.02351C31.5886 6.02351 30.8539 5.17711 30.8539 4.02801C30.8539 2.83038 31.6042 1.97658 32.7866 1.97658C33.9039 1.97658 34.6551 2.78267 34.6551 3.96467C34.6551 5.17711 33.8808 6.02351 32.7224 6.02351ZM32.7553 2.60665C32.1325 2.60665 31.7334 3.18901 31.7334 4.00333C31.7334 4.80203 32.1407 5.38439 32.7471 5.38439C33.3534 5.38439 33.7607 4.76172 33.7607 3.98688C33.7607 3.19724 33.3617 2.60665 32.7553 2.60665ZM41.1204 2.05636L39.9068 5.9355H39.1161L38.6134 4.25092C38.4884 3.83886 38.3843 3.42075 38.3016 2.99818H38.2851C38.2218 3.42097 38.1016 3.84458 37.9741 4.25092L37.4393 5.9355H36.6404L35.4984 2.05636H36.3845L36.8239 3.90052C36.9275 4.33976 37.0148 4.75432 37.0872 5.14585H37.1036C37.167 4.8193 37.2706 4.41132 37.4229 3.90874L37.9741 2.05719H38.6767L39.2041 3.86926C39.3317 4.3085 39.4353 4.73952 39.516 5.14668H39.539C39.595 4.74774 39.683 4.32413 39.8023 3.86926L40.2737 2.05719L41.1204 2.05636ZM45.588 5.9355H44.7257V3.70804C44.7257 3.02203 44.4624 2.67821 43.9433 2.67821C43.4323 2.67821 43.081 3.11745 43.081 3.62825V5.9355H42.2188V3.16516C42.2188 2.82215 42.2105 2.45448 42.1867 2.05554H42.9453L42.9856 2.65436H43.0094C43.2415 2.23979 43.7121 1.97658 44.2395 1.97658C45.054 1.97658 45.5888 2.59924 45.5888 3.61262L45.588 5.9355ZM47.9658 5.9355H47.1027V0.276367H47.9658V5.9355ZM51.1096 6.02351C49.9766 6.02351 49.2411 5.17711 49.2411 4.02801C49.2411 2.83038 49.9914 1.97658 51.1729 1.97658C52.2911 1.97658 53.0414 2.78267 53.0414 3.96467C53.0423 5.17711 52.2672 6.02351 51.1096 6.02351ZM51.1417 2.60665C50.5188 2.60665 50.1198 3.18901 50.1198 4.00333C50.1198 4.80203 50.5279 5.38439 51.1326 5.38439C51.7398 5.38439 52.1463 4.76172 52.1463 3.98688C52.1471 3.19724 51.7489 2.60665 51.1417 2.60665ZM56.4411 5.9355L56.3786 5.48886H56.3555C56.0922 5.84831 55.708 6.02351 55.2209 6.02351C54.5257 6.02351 54.032 5.53657 54.032 4.88182C54.032 3.92437 54.8622 3.4292 56.2996 3.4292V3.35763C56.2996 2.84683 56.0289 2.59102 55.4941 2.59102C55.1115 2.59102 54.7758 2.68726 54.4805 2.87891L54.3052 2.31218C54.6639 2.08844 55.1115 1.97658 55.6373 1.97658C56.6509 1.97658 57.1627 2.51123 57.1627 3.58137V5.01013C57.1627 5.40167 57.1799 5.70519 57.2186 5.93632L56.4411 5.9355ZM56.3226 4.00333C55.3649 4.00333 54.8844 4.23529 54.8844 4.78558C54.8844 5.19274 55.1321 5.3918 55.476 5.3918C55.9145 5.3918 56.3226 5.05702 56.3226 4.60215V4.00333ZM61.3497 5.9355L61.3094 5.31283H61.2855C61.0379 5.78333 60.6216 6.02351 60.0399 6.02351C59.1044 6.02351 58.4116 5.20097 58.4116 4.04364C58.4116 2.83038 59.1299 1.97575 60.1106 1.97575C60.6298 1.97575 60.9976 2.15096 61.2049 2.50301H61.2222V0.276367H62.0853V4.89004C62.0853 5.26512 62.0943 5.61635 62.1174 5.9355H61.3497ZM61.2222 3.65293C61.2222 3.11005 60.8626 2.64695 60.3139 2.64695C59.6746 2.64695 59.2838 3.21369 59.2838 4.01156C59.2838 4.7938 59.6894 5.32928 60.2966 5.32928C60.8388 5.32928 61.2222 4.85796 61.2222 4.29945V3.65293ZM67.5575 6.02351C66.4245 6.02351 65.6898 5.17711 65.6898 4.02801C65.6898 2.83038 66.4402 1.97658 67.6217 1.97658C68.7398 1.97658 69.4902 2.78267 69.4902 3.96467C69.491 5.17711 68.7168 6.02351 67.5575 6.02351ZM67.5896 2.60665C66.9676 2.60665 66.5685 3.18901 66.5685 4.00333C66.5685 4.80203 66.9758 5.38439 67.5814 5.38439C68.1886 5.38439 68.595 4.76172 68.595 3.98688C68.5967 3.19724 68.1976 2.60665 67.5896 2.60665ZM74.1273 5.9355H73.2642V3.70804C73.2642 3.02203 73.0009 2.67821 72.4818 2.67821C71.9708 2.67821 71.6203 3.11745 71.6203 3.62825V5.9355H70.7572V3.16516C70.7572 2.82215 70.749 2.45448 70.7251 2.05554H71.4837L71.5241 2.65436H71.5479C71.7791 2.23979 72.2506 1.97575 72.7771 1.97575C73.5917 1.97575 74.1273 2.59842 74.1273 3.6118V5.9355ZM79.9286 2.70289H78.98V4.58652C78.98 5.06607 79.1462 5.30543 79.4818 5.30543C79.6341 5.30543 79.7616 5.28898 79.8644 5.26512L79.8883 5.91987C79.7213 5.98403 79.4975 6.01611 79.2194 6.01611C78.5398 6.01611 78.1333 5.64103 78.1333 4.65891V2.70289H77.5673V2.05636H78.1333V1.34568L78.98 1.08987V2.05554H79.9286V2.70289ZM84.4933 5.9355H83.6319V3.72449C83.6319 3.03026 83.3694 2.67903 82.8494 2.67903C82.4027 2.67903 81.9864 2.98255 81.9864 3.597V5.9355H81.1249V0.276367H81.9864V2.60665H82.0036C82.2751 2.18386 82.6684 1.97575 83.1703 1.97575C83.9914 1.97575 84.4933 2.61405 84.4933 3.62825V5.9355ZM89.1699 4.20321H86.5823C86.5988 4.93775 87.085 5.35231 87.805 5.35231C88.1875 5.35231 88.5397 5.28816 88.8507 5.16889L88.9848 5.7677C88.6179 5.92728 88.1859 6.00706 87.6832 6.00706C86.4696 6.00706 85.7513 5.24045 85.7513 4.05187C85.7513 2.86246 86.4869 1.96835 87.5861 1.96835C88.5775 1.96835 89.1996 2.70289 89.1996 3.8125C89.2051 3.94345 89.1952 4.0746 89.1699 4.20321ZM88.3792 3.58877C88.3792 2.98996 88.0773 2.56717 87.526 2.56717C87.0307 2.56717 86.6391 2.99818 86.5832 3.58877H88.3792Z" fill="#003973"/>
</svg>
