<svg width="95" height="24" viewBox="0 0 95 24" fill="none" xmlns="http://www.w3.org/2000/svg">
<path d="M0 0.0878906V23.9168L12.0159 12.0043L0 0.0878906Z" fill="#003973"/>
<path d="M15.2438 8.80002L10.3921 5.99802L0 0V0.0875624L12.0159 12L15.2438 8.80002Z" fill="#003973"/>
<path d="M0 23.9125V24L10.3921 17.998L15.2438 15.2L12.0159 12L0 23.9125Z" fill="#003973"/>
<path d="M15.244 8.7998L12.0161 11.9998L15.244 15.1998L20.7883 11.9998L15.244 8.7998Z" fill="#003973"/>
<path d="M75.6419 16.6575C75.1922 16.6575 74.7782 16.5739 74.4041 16.4068C74.03 16.2396 73.7036 15.9729 73.4648 15.6386H73.3892C73.4409 16.0446 73.4648 16.4267 73.4648 16.7889V19.6386H72.4141V9.60477H73.2658L73.4131 10.552H73.4648C73.7355 10.1739 74.0499 9.8993 74.4081 9.72815C74.7663 9.56099 75.1763 9.47741 75.6419 9.47741C76.5613 9.47741 77.2698 9.79184 77.7713 10.4207C78.2688 11.0496 78.5195 11.9292 78.5195 13.0635C78.5195 14.2018 78.2648 15.0854 77.7593 15.7182C77.2499 16.3431 76.5454 16.6575 75.6419 16.6575ZM75.4907 10.369C74.7822 10.369 74.2728 10.564 73.9544 10.958C73.6399 11.352 73.4768 11.9729 73.4688 12.8287V13.0635C73.4688 14.0386 73.632 14.7351 73.9544 15.153C74.2807 15.571 74.7981 15.7819 75.5146 15.7819C76.1116 15.7819 76.5812 15.5391 76.9235 15.0535C77.2618 14.568 77.433 13.8993 77.433 13.0476C77.433 12.1839 77.2618 11.5192 76.9235 11.0575C76.5812 10.5998 76.1036 10.369 75.4907 10.369ZM80.9474 16.5302H79.8967V6.69531H80.9474V16.5302ZM86.9812 16.5302L86.7743 15.5431H86.7225C86.3763 15.9769 86.034 16.2715 85.6877 16.4267C85.3454 16.5819 84.9156 16.6575 84.4021 16.6575C83.7136 16.6575 83.1763 16.4824 82.7862 16.1282C82.3962 15.7739 82.2011 15.2724 82.2011 14.6157C82.2011 13.2147 83.3196 12.4824 85.5564 12.4147L86.7345 12.3749V11.9451C86.7345 11.3998 86.6191 11.0018 86.3842 10.7391C86.1494 10.4804 85.7753 10.3491 85.2618 10.3491C84.6847 10.3491 84.032 10.5242 83.3036 10.8784L82.9812 10.0744C83.3235 9.88736 83.6977 9.74408 84.1036 9.63661C84.5096 9.53313 84.9196 9.47741 85.3255 9.47741C86.1534 9.47741 86.7623 9.66049 87.1604 10.0267C87.5584 10.3928 87.7574 10.9819 87.7574 11.7899V16.5182L86.9812 16.5302ZM84.6131 15.7938C85.2658 15.7938 85.7793 15.6147 86.1534 15.2565C86.5275 14.8983 86.7146 14.3968 86.7146 13.752V13.1272L85.6638 13.1709C84.828 13.1988 84.227 13.3302 83.8609 13.561C83.4907 13.7918 83.3076 14.1461 83.3076 14.6316C83.3076 15.0098 83.423 15.3003 83.6499 15.4993C83.8768 15.6943 84.1992 15.7938 84.6131 15.7938ZM88.3703 9.60477H89.4967L91.0131 13.557C91.3474 14.4605 91.5544 15.1093 91.634 15.5113H91.6857C91.7415 15.2963 91.8569 14.9262 92.028 14.4088C92.2032 13.8874 92.7763 12.2874 93.7435 9.60875H94.8698L91.8927 17.4973C91.5982 18.2774 91.2519 18.8307 90.8579 19.157C90.4639 19.4834 89.9783 19.6466 89.4091 19.6466C89.0867 19.6466 88.7723 19.6108 88.4619 19.5391V18.6993C88.7166 18.7511 88.9793 18.7789 89.242 18.7749C89.9624 18.7749 90.4758 18.369 90.7823 17.561L91.1683 16.5739L88.3703 9.60477Z" fill="#003973"/>
<path d="M56.1992 10.2452C56.5335 10.5198 57.226 11.1009 57.226 12.2034C57.226 13.2741 56.6171 13.7835 56.0081 14.2611C55.8211 14.4482 55.6022 14.6512 55.6022 14.9736C55.6022 15.292 55.8211 15.4671 55.9803 15.5945L56.5017 16.0004C57.1385 16.5377 57.7196 17.0313 57.7196 18.0303C57.7196 19.3915 56.4022 20.7686 53.9066 20.7686C51.8051 20.7686 50.7902 19.7696 50.7902 18.695C50.7902 18.1736 51.0489 17.4333 51.9046 16.9278C52.8041 16.3785 54.0221 16.3069 54.6708 16.2591C54.4678 16.0004 54.237 15.7218 54.237 15.2761C54.237 15.0293 54.3086 14.886 54.3842 14.7109C54.225 14.7268 54.0658 14.7387 53.9186 14.7387C52.3823 14.7387 51.5146 13.5925 51.5146 12.4621C51.5146 11.7935 51.8211 11.0571 52.442 10.5198C53.2698 9.83923 54.2529 9.72381 55.037 9.72381H58.0221L57.0947 10.2452H56.1992ZM55.1723 16.681C55.0569 16.6651 54.9852 16.6651 54.838 16.6651C54.7066 16.6651 53.9226 16.693 53.3136 16.8999C52.9952 17.0154 52.0678 17.3616 52.0678 18.3925C52.0678 19.4193 53.0668 20.1596 54.6191 20.1596C56.0081 20.1596 56.7484 19.491 56.7484 18.5955C56.7524 17.8552 56.2708 17.4651 55.1723 16.681ZM55.5902 13.9268C55.9245 13.5925 55.9524 13.1308 55.9524 12.8681C55.9524 11.8253 55.3315 10.2014 54.1255 10.2014C53.7474 10.2014 53.3415 10.3885 53.1106 10.679C52.8638 10.9855 52.7922 11.3755 52.7922 11.7537C52.7922 12.7248 53.3574 14.3328 54.6032 14.3328C54.9693 14.3328 55.3594 14.1616 55.5902 13.9268ZM47.0768 16.4502C44.7763 16.4502 43.5464 14.6552 43.5464 13.0353C43.5464 11.1407 45.0947 9.52082 47.2957 9.52082C49.4211 9.52082 50.7544 11.1845 50.7544 12.9358C50.7504 14.6392 49.437 16.4502 47.0768 16.4502ZM48.8837 15.2761C49.234 14.8144 49.3176 14.2333 49.3176 13.6681C49.3176 12.3945 48.7086 9.96261 46.9176 9.96261C46.44 9.96659 45.9783 10.1417 45.6161 10.4561C45.0509 10.9616 44.9514 11.5984 44.9514 12.2233C44.9514 13.6562 45.6598 16.0124 47.4111 16.0124C47.9723 16.0164 48.5534 15.7417 48.8837 15.2761ZM39.232 16.4502C36.9315 16.4502 35.7016 14.6552 35.7016 13.0353C35.7016 11.1407 37.2499 9.52082 39.4509 9.52082C41.5763 9.52082 42.9096 11.1845 42.9096 12.9358C42.9096 14.6392 41.5922 16.4502 39.232 16.4502ZM41.0429 15.2761C41.3892 14.8144 41.4768 14.2333 41.4768 13.6681C41.4768 12.3945 40.8678 9.96261 39.0728 9.96261C38.5952 9.96659 38.1335 10.1417 37.7713 10.4561C37.2061 10.9616 37.1066 11.5984 37.1066 12.2233C37.1066 13.6562 37.8151 16.0124 39.5663 16.0124C40.1315 16.0164 40.7086 15.7417 41.0429 15.2761ZM34.5952 16.2233L32.5175 16.7009C31.6738 16.8323 30.9175 16.9477 30.1175 16.9477C26.1016 16.9477 24.5732 13.9945 24.5732 11.682C24.5732 8.86012 26.7384 6.24121 30.4519 6.24121C31.2359 6.24121 31.9922 6.35663 32.6767 6.54768C33.7673 6.85415 34.2767 7.23226 34.5991 7.45116L33.3892 8.60141L32.8797 8.71684L33.2419 8.13574C32.7484 7.65813 31.8449 6.77057 30.1295 6.77057C27.829 6.77057 26.0976 8.51783 26.0976 11.0611C26.0976 13.7955 28.0757 16.3706 31.2479 16.3706C32.1792 16.3706 32.6608 16.1835 33.0947 16.0084V13.6681L30.8976 13.7835L32.0598 13.1586H35.1444L34.7663 13.5208C34.6628 13.6084 34.6509 13.6363 34.619 13.7517C34.6031 13.883 34.5912 14.3049 34.5912 14.4522L34.5952 16.2233Z" fill="#003973"/>
<path d="M60.8005 15.8056C60.3189 15.7618 60.2194 15.6743 60.2194 15.1051V6.87027L60.2273 6.77474C60.287 6.26529 60.4303 6.17773 60.8841 5.91504H58.8025L57.7119 6.44041H58.8224V6.44837V6.44439V15.4275C58.8224 15.718 58.7666 15.7618 58.4323 16.1996H61.0074L61.5448 15.8812C61.294 15.8494 61.0472 15.8335 60.8005 15.8056ZM66.7189 15.937C66.5597 16.0245 66.4005 16.124 66.2413 16.1957C65.7637 16.4146 65.2741 16.4703 64.8403 16.4703C64.3786 16.4703 63.6582 16.4424 62.9179 15.9051C61.891 15.1807 61.4453 13.9389 61.4453 12.8563C61.4453 10.6195 63.2642 9.52102 64.7527 9.52102C65.2741 9.52102 65.8075 9.65236 66.2413 9.92699C66.9617 10.4046 67.1527 11.0255 67.2522 11.3558L63.8572 12.729L62.7428 12.8165C63.105 14.6514 64.3468 15.718 65.7199 15.718C66.4562 15.718 66.9935 15.4593 67.4831 15.2126L66.7189 15.937ZM65.3617 11.6305C65.6363 11.531 65.7796 11.4434 65.7796 11.2404C65.7796 10.6633 65.1308 9.99863 64.3468 9.99863C63.7696 9.99863 62.687 10.4484 62.687 12.0086C62.687 12.2554 62.7149 12.5141 62.7308 12.7728L65.3617 11.6305ZM68.1119 9.62052V10.5718H67.9965V9.62052H67.6821V9.52102H68.4303V9.62052H68.1119ZM69.4134 10.5757V9.61256H69.4095L69.1149 10.5757H69.0234L68.7289 9.61256H68.7249V10.5757H68.6214V9.525H68.8005L69.0672 10.3767H69.0711L69.3338 9.525H69.5169V10.5757H69.4134Z" fill="#003973"/>
</svg>
