<svg xmlns="http://www.w3.org/2000/svg" width="77.732" height="86.427" viewBox="0 0 77.732 86.427"><g transform="translate(-7462.493 -1108.411)"><circle cx="27.648" cy="27.648" r="27.648" transform="translate(7462.493 1151.704) rotate(-38.733)" fill="#cbd251" style="mix-blend-mode:multiply;isolation:isolate"/><path d="M7494.1,1159.761a14.265,14.265,0,0,0-4.307-6.587,17.306,17.306,0,0,1-6.207-13.3,17.484,17.484,0,1,1,28.755,13.3,13.588,13.588,0,0,0-4.434,6.587Z" fill="#1ebbb9" style="mix-blend-mode:multiply;isolation:isolate"/><path d="M7500.963,1163.055l5.929-23.308-2.964-2.43L7501,1139.3l-3.037-1.982-2.98,2.43Z" fill="none" stroke="#fff" stroke-miterlimit="10" stroke-width="3.04"/><path d="M7504.992,1171.415a4.229,4.229,0,0,1-7.854,0Z" fill="#08396f"/><path d="M7496.378,1171.542h9.247a2.271,2.271,0,0,0,2.28-2.28v-9.628H7494.1v9.628A2.271,2.271,0,0,0,7496.378,1171.542Z" fill="#08396f"/><path d="M7494.224,1164.448H7507.9a1.406,1.406,0,0,0,1.394-1.393h0a1.406,1.406,0,0,0-1.394-1.394h-13.681a1.405,1.405,0,0,0-1.393,1.394h0A1.405,1.405,0,0,0,7494.224,1164.448Z" fill="#08396f"/><path d="M7494.224,1168.882H7507.9a1.407,1.407,0,0,0,1.394-1.394h0a1.406,1.406,0,0,0-1.394-1.393h-13.681a1.405,1.405,0,0,0-1.393,1.393h0A1.406,1.406,0,0,0,7494.224,1168.882Z" fill="#08396f"/><line x2="7.287" y2="5.987" transform="translate(7518.051 1155.431)" fill="none" stroke="#08396f" stroke-miterlimit="10" stroke-width="3.04"/><line x2="8.58" y2="2.597" transform="translate(7523.691 1144.832)" fill="none" stroke="#08396f" stroke-miterlimit="10" stroke-width="3.04"/><line y1="2.079" x2="8.697" transform="translate(7523.222 1130.051)" fill="none" stroke="#08396f" stroke-miterlimit="10" stroke-width="3.04"/><line y1="6.34" x2="5.906" transform="translate(7517.009 1116.03)" fill="none" stroke="#08396f" stroke-miterlimit="10" stroke-width="3.04"/><line y1="7.899" x2="2.058" transform="translate(7506.41 1108.795)" fill="none" stroke="#08396f" stroke-miterlimit="10" stroke-width="3.04"/><line x1="2.366" y1="7.266" transform="translate(7491.983 1109.428)" fill="none" stroke="#08396f" stroke-miterlimit="10" stroke-width="3.04"/><line x1="5.13" y1="5.686" transform="translate(7480.055 1116.283)" fill="none" stroke="#08396f" stroke-miterlimit="10" stroke-width="3.04"/><line x1="7.329" y1="2.514" transform="translate(7472.523 1128.272)" fill="none" stroke="#08396f" stroke-miterlimit="10" stroke-width="3.04"/></g></svg>