<svg xmlns="http://www.w3.org/2000/svg" width="79.937" height="74.257" viewBox="0 0 79.937 74.257"><circle cx="26.412" cy="26.412" r="26.412" transform="translate(0 41.206) rotate(-51.267)" fill="#cbd251" style="mix-blend-mode:multiply;isolation:isolate"/><g transform="translate(19.734 14.148)"><circle cx="23.146" cy="23.146" r="23.146" fill="#189a3b"/><circle cx="16.815" cy="16.815" r="16.815" transform="translate(6.331 6.331)" fill="#fff"/><g transform="translate(13.845 13.845)" fill="#1ebbb9" stroke="#08396f" stroke-miterlimit="10" stroke-width="3.63"><circle cx="9.301" cy="9.301" r="9.301" stroke="none"/><circle cx="9.301" cy="9.301" r="11.116" fill="none"/></g></g><g transform="translate(39.549 0.622)"><g transform="translate(0 7.581)"><rect width="42.508" height="3.96" transform="translate(0 30.058) rotate(-45.001)" fill="#08396f"/></g><g transform="translate(22.806 8.836)"><path d="M7093.282,1141.629h-6.711v-3.96l2.523.011,1.9-2.422,1.474-1.053,1.339-3.447h10.35Z" transform="translate(-7086.571 -1130.758)" fill="#08396f"/></g><g transform="translate(20.681)"><path d="M7088.405,1139.5h-3.959v-6.711l10.871-10.871v10.35h-3.96l1.423,1.513-1.474,2.317Z" transform="translate(-7084.446 -1121.922)" fill="#08396f"/></g></g></svg>