<svg width="48" height="50" viewBox="0 0 48 50" fill="none" xmlns="http://www.w3.org/2000/svg">
<g clip-path="url(#clip0_1031_3090)">
<path d="M41.0361 41.0036C50.4215 31.6182 50.4215 16.4014 41.0361 7.01596C31.6507 -2.36946 16.4339 -2.36946 7.0485 7.01596C-2.33693 16.4014 -2.33693 31.6182 7.0485 41.0036C16.4339 50.389 31.6507 50.389 41.0361 41.0036Z" fill="#C0D346"/>
<path d="M42.1735 9.33609C42.1735 8.34299 42.1735 5.49609 42.1735 5.49609C42.1735 5.49609 39.459 5.49609 38.3335 5.49609H5.89209V49.4575H42.1735V9.33609Z" fill="#22BCB9"/>
<path d="M42.1735 5.49609H5.89209V20.194H42.1735V5.49609Z" fill="#003C77"/>
<path d="M37.6716 10.7261C37.6716 10.395 37.6716 9.26953 37.6716 9.26953C37.6716 9.26953 36.6785 9.26953 36.215 9.26953H10.3281V16.8171H37.6716V10.7261Z" fill="white"/>
<path d="M17.4123 23.7031V28.6024H10.3281V23.7031H17.4123Z" fill="#C0D346"/>
<path d="M27.5421 23.7031V28.6024H20.458V23.7031H27.5421Z" fill="#C0D346"/>
<path d="M37.6715 23.7031V28.6024H30.5874V23.7031H37.6715Z" fill="#003C77"/>
<path d="M17.4123 31.4492V36.3485H10.3281V31.4492H17.4123Z" fill="#003C77"/>
<path d="M27.5421 31.4492V36.3485H20.458V31.4492H27.5421Z" fill="#003C77"/>
<path d="M37.6715 31.4492V44.0947H30.5874V31.4492H37.6715Z" fill="white"/>
<path d="M17.4123 39.1953V44.0946H10.3281V39.1953H17.4123Z" fill="#003C77"/>
<path d="M27.5421 39.1953V44.0946H20.458V39.1953H27.5421Z" fill="#003C77"/>
<path d="M31.3154 15.4269H27.4092V10.5938H31.3154V15.4269ZM28.8657 14.0365H29.8588V12.1165H28.8657V14.0365Z" fill="#003C77"/>
<path d="M25.4893 10.5938H24.0327V15.4269H25.4893V10.5938Z" fill="#003C77"/>
<path d="M34.6919 10.5938H33.2354V15.4269H34.6919V10.5938Z" fill="#003C77"/>
</g>
<defs>
<clipPath id="clip0_1031_3090">
<rect width="48" height="49.4566" fill="white"/>
</clipPath>
</defs>
</svg>
