<svg xmlns="http://www.w3.org/2000/svg" width="77" height="77" viewBox="0 0 77 77"><g transform="translate(-979.051 -848.554)"><circle cx="27.777" cy="27.777" r="27.777" transform="translate(979.051 891.889) rotate(-51.267)" fill="#bfd145" style="mix-blend-mode:multiply;isolation:isolate"/><path d="M995.214,883.031s6.979,9.112,15.588,9.112,15.589-9.112,15.589-9.112-6.979-9.112-15.589-9.112S995.214,883.031,995.214,883.031Z" fill="#fff"/><circle cx="7.018" cy="7.018" r="7.018" transform="translate(1003.784 875.321)" fill="#003c77"/><path d="M1031.612,898.616l-3.9,3.9-4.02-4.02,3.9-3.9Z" fill="#003c77"/><path d="M1044.4,915.3h0a5.956,5.956,0,0,1-8.405,0l-11.45-11.45,8.405-8.405,11.45,11.45A5.956,5.956,0,0,1,1044.4,915.3Z" fill="#1ebbb9" style="mix-blend-mode:multiply;isolation:isolate"/><path d="M1026.984,865.24a23.048,23.048,0,0,0-32.523,0,22.792,22.792,0,0,0-.122,32.4,23,23,0,1,0,32.645-32.4Zm-3.655,28.991a18.049,18.049,0,0,1-25.458-.122,17.793,17.793,0,0,1,.122-25.336,17.958,17.958,0,1,1,25.336,25.458Z" fill="#003c77"/><path d="M1032.952,895.449l-8.527,8.283,3.532,3.532,8.4-8.4Z" fill="#003c77"/></g></svg>