<svg xmlns="http://www.w3.org/2000/svg" width="41.65" height="41.65" viewBox="0 0 41.65 41.65">
  <g id="Group_994" data-name="Group 994" transform="translate(-1467 -365)">
    <rect id="Rectangle_987" data-name="Rectangle 987" width="41.65" height="41.65" rx="7" transform="translate(1467 365)" fill="#fff"/>
    <g id="Group_993" data-name="Group 993">
      <path id="Path_464" data-name="Path 464" d="M1492.279,400.612a14.279,14.279,0,0,1-4.212,1.184,14.464,14.464,0,1,1,4.212-1.184Z" transform="translate(0 0)" fill="#bfd145" style="mix-blend-mode: multiply;isolation: isolate"/>
      <path id="Path_465" data-name="Path 465" d="M1488.346,397.452a1.712,1.712,0,0,1-1.248.526,1.635,1.635,0,0,1-.354-.035c-.6-.123-4.315-.535-4.534-1.1l-.241-9.076h-1.423v-1.777h-2.667a.889.889,0,0,1-.884-.889v-5.324a.888.888,0,0,1,.884-.889h2.667v-1.778h8.774l-.013.005v10.6c.066.018-1.375.008-1.375.008l0,6.008A16.835,16.835,0,0,1,1488.346,397.452Z" transform="translate(0.001 0.005)" fill="#003c77"/>
      <path id="Path_466" data-name="Path 466" d="M1503.485,370.748v23.331a.726.726,0,0,1-.181.448c-.027.03-.047.055-.074.082a.968.968,0,0,1-.458.255c-.008,0-.012.009-.016.01a1.335,1.335,0,0,1-.372.028,1.38,1.38,0,0,1-.442-.111c-.032-.012-.06-.04-.092-.056a1.273,1.273,0,0,1-.27-.188c-.008-.011-.024-.017-.032-.028a23.469,23.469,0,0,0-12.127-6.761c-.074-.014-.149-.033-.223-.047v-10.6c.005,0,.01,0,.015,0a23.444,23.444,0,0,0,12.335-6.807c.008-.007.02-.01.028-.017a1.243,1.243,0,0,1,.476-.285.956.956,0,0,1,.123-.028,1.588,1.588,0,0,1,.209-.049,1.37,1.37,0,0,1,.306.028c.023.007.043-.006.066,0l.016.01a.967.967,0,0,1,.458.255.537.537,0,0,1,.074.078A.728.728,0,0,1,1503.485,370.748Z" transform="translate(0.005)" fill="#1ebbb9"/>
      <path id="Path_467" data-name="Path 467" d="M1480.443,397.6a3.406,3.406,0,0,1-3.294-3.505V391.7a3.406,3.406,0,0,1,3.294-3.506h5.489a3.4,3.4,0,0,1,3.293,3.506V394.1a3.4,3.4,0,0,1-3.293,3.505Z" transform="translate(0.001 0.005)" fill="#fff"/>
      <path id="Path_468" data-name="Path 468" d="M1480.326,397.05a1.245,1.245,0,0,1-1.246-1.245h0a1.245,1.245,0,0,1,1.246-1.246h8.773a1.245,1.245,0,0,1,1.245,1.246h0a1.245,1.245,0,0,1-1.245,1.245Z" transform="translate(0.002 0.004)" fill="#fff"/>
      <path id="Path_469" data-name="Path 469" d="M1480.066,393.256a1.247,1.247,0,0,1-1.246-1.245h0a1.246,1.246,0,0,1,1.246-1.246H1490.2a1.246,1.246,0,0,1,1.246,1.246h0a1.246,1.246,0,0,1-1.246,1.245Z" transform="translate(0.002 0.003)" fill="#fff"/>
      <path id="Path_470" data-name="Path 470" d="M1479.874,395.224a1.245,1.245,0,0,1-1.246-1.246h0a1.244,1.244,0,0,1,1.246-1.244h10.135a1.244,1.244,0,0,1,1.246,1.244h0a1.245,1.245,0,0,1-1.246,1.246Z" transform="translate(0.002 0.004)" fill="#fff"/>
      <path id="Path_471" data-name="Path 471" d="M1479.491,391.278a1.246,1.246,0,0,1-1.247-1.246h0a1.245,1.245,0,0,1,1.247-1.244h10.137a1.245,1.245,0,0,1,1.245,1.244h0a1.245,1.245,0,0,1-1.245,1.246Z" transform="translate(0.002 0.003)" fill="#fff"/>
      <path id="Path_472" data-name="Path 472" d="M1482.636,387.441h-2.283c-.2,0-.358-.13-.566.342-.813,1-2.206,2.829-2.206,2.829l3.256-.376s1.832-.585,1.826-1.263A6.315,6.315,0,0,0,1482.636,387.441Z" transform="translate(0.001 0.003)" fill="#fff"/>
      <rect id="Rectangle_803" data-name="Rectangle 803" width="4.782" height="10.094" transform="translate(1474.813 387.594)" fill="#003c77"/>
    </g>
  </g>
</svg>
