<svg xmlns="http://www.w3.org/2000/svg" viewBox="0 0 46.14 49.2"><defs><style>.cls-1{isolation:isolate;}.cls-2{fill:#cad32f;}.cls-2,.cls-4{mix-blend-mode:multiply;}.cls-3{fill:#003973;}.cls-5{fill:#2bb6b7;}</style></defs><g class="cls-1"><g id="Layer_1" data-name="Layer 1"><circle class="cls-2" cx="22.31" cy="29.96" r="20.59" transform="translate(-15.95 27.22) rotate(-51.27)"/><path class="cls-3" d="M27.77,23.06a.76.76,0,0,0,.64.26,70.52,70.52,0,0,1,7.16-.86,7,7,0,0,1,4.84,1.22,6.45,6.45,0,0,1-.36,10.65,6.85,6.85,0,0,1-6,.46A30.29,30.29,0,0,1,26.43,31a.4.4,0,0,0-.31-.07,59.69,59.69,0,0,0-9.07,2.67.69.69,0,0,0-.35.3,89.39,89.39,0,0,1-5.26,8.42,5.86,5.86,0,0,1-8.9.49,6.1,6.1,0,0,1-.69-7.35,11.47,11.47,0,0,1,2.2-2.33,31.8,31.8,0,0,1,7.47-4.77.7.7,0,0,0,.34-.34,90.36,90.36,0,0,0,4.3-9.78.47.47,0,0,0,0-.33c-1.28-3.23-3.23-9.7-1.89-13a5.84,5.84,0,0,1,11,.79,13.47,13.47,0,0,1,0,4.3,47.58,47.58,0,0,1-1.49,7.61.44.44,0,0,0,.05.35A20.86,20.86,0,0,0,27.77,23.06Zm-7-15.7c.08-1.7-2.44-1.91-2.3.36a27.63,27.63,0,0,0,1.23,6.61q.07.22.12,0A40,40,0,0,0,20.81,7.36ZM20.3,21c-.07-.12-.14-.11-.19,0-.95,2.51-2,5-3.2,7.38-.09.18,0,.24.17.17a67.92,67.92,0,0,1,7.37-2.1c.1,0,.11-.06,0-.13A25.57,25.57,0,0,1,20.3,21Zm10,7a28.12,28.12,0,0,0,5.32,2.44c3.41,1.14,3.64-3.39.71-3.27a46.87,46.87,0,0,0-6,.64C30.14,27.81,30.13,27.88,30.3,28ZM6.15,37.54c-1.53,1.44.6,3.32,1.62,1.87q1.89-2.7,3.55-5.52c.1-.17.07-.2-.1-.11A26.64,26.64,0,0,0,6.15,37.54Z" transform="translate(-0.93 -1.4)"/><g class="cls-4"><path class="cls-5" d="M24.56,38.77a2.37,2.37,0,0,1,2.27,1.63A5.29,5.29,0,0,1,27,41.63v3A2.38,2.38,0,0,1,25.2,47a4.14,4.14,0,0,1-1,.09H21.06a0,0,0,0,0,0,0h0v3.47a0,0,0,0,1,0,0H18.7s0,0,0-.06V38.8a0,0,0,0,1,0,0h5.86Zm0,2.4a0,0,0,0,0,0,0H21.07a0,0,0,0,0,0,0v3.47a0,0,0,0,0,0,0h3.47a0,0,0,0,0,0,0h0Z" transform="translate(-0.93 -1.4)"/><path class="cls-5" d="M37.6,47a3.58,3.58,0,0,1-2.78,3.52,7.94,7.94,0,0,1-1.47.09h-4s0,0,0,0h0V38.8s0,0,0,0h4a7.94,7.94,0,0,1,1.47.09,3.55,3.55,0,0,1,2.74,2.72,6.94,6.94,0,0,1,.08,1.25Zm-3.55,1.24A1.19,1.19,0,0,0,35.23,47V42.65c0-1.06-.39-1.52-1.47-1.52h-2a0,0,0,0,0,0,0v7a0,0,0,0,0,0,0C32.83,48.24,33.61,48.24,34.05,48.23Z" transform="translate(-0.93 -1.4)"/><path class="cls-5" d="M42.34,45.9v4.66s0,0,0,0H40s0,0,0-.06V38.8a0,0,0,0,1,0,0h7a0,0,0,0,1,0,0v2.29a0,0,0,0,1,0,0H42.37s0,0,0,0v2.29s0,0,0,0h3.48s0,0,0,0v2.3s0,0-.06,0H42.39A0,0,0,0,0,42.34,45.9Z" transform="translate(-0.93 -1.4)"/></g></g></g></svg>