<svg xmlns="http://www.w3.org/2000/svg" width="75.751" height="74.257" viewBox="0 0 75.751 74.257"><circle cx="26.412" cy="26.412" r="26.412" transform="translate(0 41.206) rotate(-51.267)" fill="#cbd251" style="mix-blend-mode:multiply;isolation:isolate"/><g transform="translate(18.188 23.278)"><g transform="translate(0 1.847)"><rect width="25.747" height="26.667" fill="#1ebbb9"/></g><g transform="translate(19.6)"><path d="M7061.1,1449h19.43l-6.969-12.75,6.969-12.751H7061.1Z" transform="translate(-7061.104 -1423.501)" fill="#189a3b"/></g><path d="M7061.1,1449l6.147,3.013-.012-3.013Z" transform="translate(-7041.504 -1423.501)" fill="#fff"/><line x2="10.79" transform="translate(41.102 5.362)" fill="none" stroke="#08396f" stroke-miterlimit="10" stroke-width="2.31"/><line x2="19.493" transform="translate(38.07 12.732)" fill="none" stroke="#08396f" stroke-miterlimit="10" stroke-width="2.31"/><line x2="11.188" transform="translate(38.742 20.102)" fill="none" stroke="#08396f" stroke-miterlimit="10" stroke-width="2.31"/></g><g transform="translate(17.179 20.348)"><path d="M7040.5,1424.252a3.681,3.681,0,1,1,3.681,3.681A3.681,3.681,0,0,1,7040.5,1424.252Z" transform="translate(-7040.495 -1420.571)" fill="#08396f"/><g transform="translate(0.843 5.334)"><path d="M7047.015,1425.9v43.5h-5.676v-43.5Z" transform="translate(-7041.338 -1425.905)" fill="#08396f"/></g></g></svg>