<svg width="48" height="52" viewBox="0 0 48 52" fill="none" xmlns="http://www.w3.org/2000/svg">
<g clip-path="url(#clip0_1035_2047)">
<path d="M42.7277 39.0026C51.0213 28.6625 49.3622 13.557 39.0221 5.26341C28.682 -3.03014 13.5765 -1.37109 5.28291 8.96901C-3.01064 19.3091 -1.35158 34.4147 8.98851 42.7082C19.3286 51.0018 34.4342 49.3427 42.7277 39.0026Z" fill="#C0D346"/>
<path d="M23.1428 34.8137L9.62631 49.1874C7.45048 51.7588 4.48345 51.3632 2.57136 49.7148C0.791144 48.1324 -6.50287e-05 45.4291 1.91202 42.9896L13.2527 26.7698C13.7802 26.0445 14.8351 25.8467 15.5604 26.3742L23.0769 32.4401C23.7362 33.0995 23.8021 34.1544 23.1428 34.8137Z" fill="#22BCB9"/>
<path d="M32.4396 25.9124C34.2199 25.3849 35.9342 24.264 37.1869 22.6816C40.6155 18.4618 39.9561 12.1981 35.7363 8.76952C31.5166 5.34095 25.2528 6.00029 21.8243 10.2201C20.5715 11.8025 19.8462 13.6486 19.6484 15.5607L32.4396 25.9124Z" fill="white"/>
<path d="M24.7254 38.0441L9.36273 25.5826C8.63746 24.9892 8.57152 24.0002 9.09899 23.2749L17.4067 13.0551C18.0001 12.3298 18.9891 12.2639 19.7144 12.7914L35.077 25.2529C35.8023 25.8463 35.8682 26.8353 35.3407 27.5606L27.099 37.8463C26.5056 38.5057 25.4506 38.6375 24.7254 38.0441Z" fill="#003C77"/>
</g>
<defs>
<clipPath id="clip0_1035_2047">
<rect width="48" height="51.033" fill="white"/>
</clipPath>
</defs>
</svg>
