<svg width="120" height="80" viewBox="0 0 120 80" fill="none" xmlns="http://www.w3.org/2000/svg">
<g clip-path="url(#clip0_1033_158)">
<path d="M99.1237 19.3993L94.3062 24.2725L99.1237 29.1456L103.941 24.2725L99.1237 19.3993Z" fill="#003973"/>
<path d="M99.1444 32.7693L95.561 36.3936L99.1439 40.0183L102.727 36.3941L99.1444 32.7693Z" fill="#003973"/>
<path d="M91.3493 27.8019L88.0288 32.4248L92.5989 35.7837L95.9194 31.1608L91.3493 27.8019Z" fill="#003973"/>
<path d="M81.4049 22.2637L78.311 28.4043L84.3815 31.5339L87.4754 25.3933L81.4049 22.2637Z" fill="#1EA2DC"/>
<path d="M106.911 27.795L102.341 31.1533L105.661 35.7767L110.231 32.4185L106.911 27.795Z" fill="#003973"/>
<path d="M88.7777 11.2215L83.9277 17.9736L90.6028 22.8796L95.4528 16.1274L88.7777 11.2215Z" fill="#2DB6B7"/>
<path d="M109.531 11.2171L102.855 16.123L107.705 22.8752L114.381 17.9693L109.531 11.2171Z" fill="#A2A2A3"/>
<path d="M99.1397 0.000928947L92.1191 7.10254L99.1397 14.2041L106.16 7.10254L99.1397 0.000928947Z" fill="#78B12B"/>
<path d="M116.895 22.2585L110.824 25.3867L113.917 31.528L119.988 28.3998L116.895 22.2585Z" fill="#C9D22E"/>
<path d="M100.793 57.5586H97.438V74.9439H100.793V57.5586Z" fill="#003973"/>
<path d="M9.3123 61.6104L12.0855 58.8052L9.3123 56L6.50488 58.8052L9.3123 61.6104Z" fill="#003973"/>
<path d="M89.5632 72.3465L83.8799 72.3118L83.9142 67.8443C83.9484 63.9309 81.004 61.2296 76.6902 61.2296C72.3079 61.2296 69.6374 63.7577 69.6374 67.9482C69.6374 71.4807 68.9185 72.2772 67.5147 72.2772H63.9541H63.9199V61.6105C63.2694 61.5759 62.6531 61.5066 62.1053 61.5066C61.0782 61.4374 60.1881 61.3681 58.8871 61.3681C53.6831 61.3681 50.7729 63.6885 50.7729 67.9482C50.7729 72.1387 53.4092 74.9439 58.2366 74.9439H60.4962C60.2908 76.7447 59.5718 77.4028 57.723 77.4028H52.5875V79.9655H57.723C61.6603 79.9655 63.6802 78.3378 63.8514 74.9439H67.4463C69.432 74.9439 70.6988 74.2512 71.452 73.1776C72.7872 74.3898 74.8072 74.9439 77.4092 74.9439H80.4563H83.7772H89.4948H90.5561H92.8157V57.5586H89.4948V72.3465H89.5632ZM54.1282 67.9482C54.1282 65.0391 55.6003 63.7577 58.9555 63.8616L60.5647 63.9309V72.2772H58.442C55.4634 72.3118 54.1282 70.5802 54.1282 67.9482ZM77.4434 72.3118C73.6774 72.3118 72.9242 70.7534 72.9242 67.9828C72.9242 65.3854 74.2936 63.8963 76.7244 63.8963C79.1895 63.8963 80.5932 65.3508 80.559 67.8443L80.5247 72.3118H77.4434Z" fill="#003973"/>
<path d="M7.42939 52.1558H20.9529V39.0303H17.5977V49.4891H7.66904C4.69044 49.4891 3.32097 47.4112 3.32097 45.1601C3.32097 43.2207 4.55349 41.593 4.9301 41.3506L1.91726 40.0692C1.91726 40.0692 0 41.974 0 45.1601C0 49.1775 2.73894 52.1558 7.42939 52.1558Z" fill="#003973"/>
<path d="M31.7374 61.3681C30.0256 61.3681 27.4236 61.853 25.7802 62.1647V57.5586H22.425V72.2772H17.1183V64.1387H13.7631V72.5196C13.7631 75.9828 12.3936 77.2989 8.83298 77.2989C5.47777 77.2989 3.38933 75.5673 3.38933 72.2772C3.38933 69.1257 5.0327 66.182 5.0327 66.182L1.88291 65.801C1.88291 65.801 0.0683594 69.0218 0.0683594 72.7621C0.0683594 77.2989 3.49204 79.9655 8.79875 79.9655C13.1126 79.9655 15.92 78.1647 16.8102 74.9439H22.4592H24.8216H25.7802H28.5191H32.4221C37.1811 74.9439 39.8515 72.0694 39.8515 67.9482C39.8515 63.6885 36.9756 61.3681 31.7374 61.3681ZM32.2167 72.3118H28.5191H25.7802V64.8313C25.8829 64.7967 25.9856 64.7967 26.1226 64.7621C27.3209 64.485 29.7859 63.9309 31.7374 63.9309C34.9557 63.9309 36.5648 65.3162 36.5648 68.0175C36.5306 70.5802 35.1953 72.3118 32.2167 72.3118Z" fill="#003973"/>
<path d="M56.2853 50.3549C57.2097 51.5324 58.7846 52.1558 60.873 52.1558H70.9044H79.2924H81.9286V49.4891H79.2924V45.922C79.2924 41.1428 76.6219 39.0302 70.5963 39.0302H65.4265V41.593H70.3908C74.5335 41.593 75.903 42.7359 75.903 46.4069V49.4891H70.9044H60.873C57.9971 49.4891 57.552 48.1038 57.552 44.9177V39.0302H54.2995V45.5064C54.2995 48.3463 53.649 49.6277 52.1768 49.6277C50.0542 49.6277 49.5749 48.2424 49.5749 45.4025V40.658H46.2539V45.4025C46.2539 48.2424 45.261 49.4891 43.0699 49.4891H40.7075V40.6926H37.3523V49.4891H29.1012V34.7705H25.7803V49.4891V52.1558H29.1012H43.1041C45.2268 52.1558 46.8359 51.4285 47.863 50.1125C48.7189 51.567 50.2596 52.329 52.2111 52.329C53.9572 52.329 55.4636 51.6709 56.2853 50.3549Z" fill="#003973"/>
<path d="M47.1101 57.5586H43.7549V74.9439H47.1101V57.5586Z" fill="#003973"/>
<path d="M100.793 57.5586H97.438V74.9439H100.793V57.5586Z" fill="#003973"/>
</g>
<defs>
<clipPath id="clip0_1033_158">
<rect width="120" height="80" fill="white"/>
</clipPath>
</defs>
</svg>
